<mxfile host="app.diagrams.net" modified="2024-01-24T20:08:59.241Z" agent="Mozilla/5.0 (Windows NT 10.0; Win64; x64) AppleWebKit/537.36 (KHTML, like Gecko) Chrome/118.0.0.0 YaBrowser/23.11.0.0 Safari/537.36" etag="o3C2kQxRL9nYITJf0TO1" version="23.0.1" type="device">
  <diagram id="C5RBs43oDa-KdzZeNtuy" name="Page-1">
    <mxGraphModel dx="1386" dy="791" grid="1" gridSize="10" guides="1" tooltips="1" connect="1" arrows="1" fold="1" page="1" pageScale="1" pageWidth="827" pageHeight="1169" math="0" shadow="0">
      <root>
        <mxCell id="WIyWlLk6GJQsqaUBKTNV-0" />
        <mxCell id="WIyWlLk6GJQsqaUBKTNV-1" parent="WIyWlLk6GJQsqaUBKTNV-0" />
        <mxCell id="ncw7-V8ARUIdLt0aV4c7-0" value="PasswdManager" style="swimlane;fontStyle=1;align=center;verticalAlign=top;childLayout=stackLayout;horizontal=1;startSize=26;horizontalStack=0;resizeParent=1;resizeParentMax=0;resizeLast=0;collapsible=1;marginBottom=0;whiteSpace=wrap;html=1;" vertex="1" parent="WIyWlLk6GJQsqaUBKTNV-1">
          <mxGeometry x="414" y="20" width="200" height="170" as="geometry">
            <mxRectangle x="110" y="80" width="130" height="30" as="alternateBounds" />
          </mxGeometry>
        </mxCell>
        <mxCell id="ncw7-V8ARUIdLt0aV4c7-1" value="+ login: String&lt;br&gt;+ password: String&lt;br&gt;- lastPoint: Point" style="text;strokeColor=none;fillColor=none;align=left;verticalAlign=top;spacingLeft=4;spacingRight=4;overflow=hidden;rotatable=0;points=[[0,0.5],[1,0.5]];portConstraint=eastwest;whiteSpace=wrap;html=1;" vertex="1" parent="ncw7-V8ARUIdLt0aV4c7-0">
          <mxGeometry y="26" width="200" height="54" as="geometry" />
        </mxCell>
        <mxCell id="ncw7-V8ARUIdLt0aV4c7-2" value="" style="line;strokeWidth=1;fillColor=none;align=left;verticalAlign=middle;spacingTop=-1;spacingLeft=3;spacingRight=3;rotatable=0;labelPosition=right;points=[];portConstraint=eastwest;strokeColor=inherit;" vertex="1" parent="ncw7-V8ARUIdLt0aV4c7-0">
          <mxGeometry y="80" width="200" height="8" as="geometry" />
        </mxCell>
        <mxCell id="ncw7-V8ARUIdLt0aV4c7-3" value="+ PasswdManager(): void&lt;br&gt;-&amp;nbsp;LoginField_Enter(object: sender, EventArgs: e): void&lt;br&gt;-&amp;nbsp;SignUp_Click(object: sender, EventArgs: e): void" style="text;strokeColor=none;fillColor=none;align=left;verticalAlign=top;spacingLeft=4;spacingRight=4;overflow=hidden;rotatable=0;points=[[0,0.5],[1,0.5]];portConstraint=eastwest;whiteSpace=wrap;html=1;" vertex="1" parent="ncw7-V8ARUIdLt0aV4c7-0">
          <mxGeometry y="88" width="200" height="82" as="geometry" />
        </mxCell>
        <mxCell id="ncw7-V8ARUIdLt0aV4c7-8" value="DB" style="swimlane;fontStyle=1;align=center;verticalAlign=top;childLayout=stackLayout;horizontal=1;startSize=26;horizontalStack=0;resizeParent=1;resizeParentMax=0;resizeLast=0;collapsible=1;marginBottom=0;whiteSpace=wrap;html=1;" vertex="1" parent="WIyWlLk6GJQsqaUBKTNV-1">
          <mxGeometry x="790" y="35" width="210" height="160" as="geometry">
            <mxRectangle x="420" y="80" width="60" height="30" as="alternateBounds" />
          </mxGeometry>
        </mxCell>
        <mxCell id="ncw7-V8ARUIdLt0aV4c7-9" value="+ conn: NpgsqlConnection" style="text;strokeColor=none;fillColor=none;align=left;verticalAlign=top;spacingLeft=4;spacingRight=4;overflow=hidden;rotatable=0;points=[[0,0.5],[1,0.5]];portConstraint=eastwest;whiteSpace=wrap;html=1;" vertex="1" parent="ncw7-V8ARUIdLt0aV4c7-8">
          <mxGeometry y="26" width="210" height="26" as="geometry" />
        </mxCell>
        <mxCell id="ncw7-V8ARUIdLt0aV4c7-10" value="" style="line;strokeWidth=1;fillColor=none;align=left;verticalAlign=middle;spacingTop=-1;spacingLeft=3;spacingRight=3;rotatable=0;labelPosition=right;points=[];portConstraint=eastwest;strokeColor=inherit;" vertex="1" parent="ncw7-V8ARUIdLt0aV4c7-8">
          <mxGeometry y="52" width="210" height="8" as="geometry" />
        </mxCell>
        <mxCell id="ncw7-V8ARUIdLt0aV4c7-11" value="+ openConnection(string user, string passwd): void&lt;br&gt;+&amp;nbsp;closeConnection(): void&lt;br&gt;+ GetConnection(string user, string passwd): NpgsqlConnection" style="text;strokeColor=none;fillColor=none;align=left;verticalAlign=top;spacingLeft=4;spacingRight=4;overflow=hidden;rotatable=0;points=[[0,0.5],[1,0.5]];portConstraint=eastwest;whiteSpace=wrap;html=1;" vertex="1" parent="ncw7-V8ARUIdLt0aV4c7-8">
          <mxGeometry y="60" width="210" height="100" as="geometry" />
        </mxCell>
        <mxCell id="ncw7-V8ARUIdLt0aV4c7-16" value="RegisterForm" style="swimlane;fontStyle=1;align=center;verticalAlign=top;childLayout=stackLayout;horizontal=1;startSize=26;horizontalStack=0;resizeParent=1;resizeParentMax=0;resizeLast=0;collapsible=1;marginBottom=0;whiteSpace=wrap;html=1;" vertex="1" parent="WIyWlLk6GJQsqaUBKTNV-1">
          <mxGeometry x="90" y="35" width="190" height="140" as="geometry" />
        </mxCell>
        <mxCell id="ncw7-V8ARUIdLt0aV4c7-17" value="- lastPoint: Point" style="text;strokeColor=none;fillColor=none;align=left;verticalAlign=top;spacingLeft=4;spacingRight=4;overflow=hidden;rotatable=0;points=[[0,0.5],[1,0.5]];portConstraint=eastwest;whiteSpace=wrap;html=1;" vertex="1" parent="ncw7-V8ARUIdLt0aV4c7-16">
          <mxGeometry y="26" width="190" height="26" as="geometry" />
        </mxCell>
        <mxCell id="ncw7-V8ARUIdLt0aV4c7-18" value="" style="line;strokeWidth=1;fillColor=none;align=left;verticalAlign=middle;spacingTop=-1;spacingLeft=3;spacingRight=3;rotatable=0;labelPosition=right;points=[];portConstraint=eastwest;strokeColor=inherit;" vertex="1" parent="ncw7-V8ARUIdLt0aV4c7-16">
          <mxGeometry y="52" width="190" height="8" as="geometry" />
        </mxCell>
        <mxCell id="ncw7-V8ARUIdLt0aV4c7-19" value="+&amp;nbsp;RegisterForm(): void&lt;br&gt;-&amp;nbsp;Home_Click(object sender, EventArgs e): void&lt;br&gt;-&amp;nbsp;registerButton_Click(object sender, EventArgs e): void" style="text;strokeColor=none;fillColor=none;align=left;verticalAlign=top;spacingLeft=4;spacingRight=4;overflow=hidden;rotatable=0;points=[[0,0.5],[1,0.5]];portConstraint=eastwest;whiteSpace=wrap;html=1;" vertex="1" parent="ncw7-V8ARUIdLt0aV4c7-16">
          <mxGeometry y="60" width="190" height="80" as="geometry" />
        </mxCell>
        <mxCell id="ncw7-V8ARUIdLt0aV4c7-21" value="MainMenu" style="swimlane;fontStyle=1;align=center;verticalAlign=top;childLayout=stackLayout;horizontal=1;startSize=26;horizontalStack=0;resizeParent=1;resizeParentMax=0;resizeLast=0;collapsible=1;marginBottom=0;whiteSpace=wrap;html=1;" vertex="1" parent="WIyWlLk6GJQsqaUBKTNV-1">
          <mxGeometry x="260" y="270" width="190" height="130" as="geometry" />
        </mxCell>
        <mxCell id="ncw7-V8ARUIdLt0aV4c7-22" value="- lastPoint: Point" style="text;strokeColor=none;fillColor=none;align=left;verticalAlign=top;spacingLeft=4;spacingRight=4;overflow=hidden;rotatable=0;points=[[0,0.5],[1,0.5]];portConstraint=eastwest;whiteSpace=wrap;html=1;" vertex="1" parent="ncw7-V8ARUIdLt0aV4c7-21">
          <mxGeometry y="26" width="190" height="26" as="geometry" />
        </mxCell>
        <mxCell id="ncw7-V8ARUIdLt0aV4c7-23" value="" style="line;strokeWidth=1;fillColor=none;align=left;verticalAlign=middle;spacingTop=-1;spacingLeft=3;spacingRight=3;rotatable=0;labelPosition=right;points=[];portConstraint=eastwest;strokeColor=inherit;" vertex="1" parent="ncw7-V8ARUIdLt0aV4c7-21">
          <mxGeometry y="52" width="190" height="8" as="geometry" />
        </mxCell>
        <mxCell id="ncw7-V8ARUIdLt0aV4c7-24" value="+&amp;nbsp;MainMenu(): void&lt;br&gt;-&amp;nbsp;addService_MouseClick(object sender, MouseEventArgs e): void" style="text;strokeColor=none;fillColor=none;align=left;verticalAlign=top;spacingLeft=4;spacingRight=4;overflow=hidden;rotatable=0;points=[[0,0.5],[1,0.5]];portConstraint=eastwest;whiteSpace=wrap;html=1;" vertex="1" parent="ncw7-V8ARUIdLt0aV4c7-21">
          <mxGeometry y="60" width="190" height="70" as="geometry" />
        </mxCell>
        <mxCell id="ncw7-V8ARUIdLt0aV4c7-25" value="MainMenu2" style="swimlane;fontStyle=1;align=center;verticalAlign=top;childLayout=stackLayout;horizontal=1;startSize=26;horizontalStack=0;resizeParent=1;resizeParentMax=0;resizeLast=0;collapsible=1;marginBottom=0;whiteSpace=wrap;html=1;" vertex="1" parent="WIyWlLk6GJQsqaUBKTNV-1">
          <mxGeometry x="590" y="270" width="190" height="130" as="geometry" />
        </mxCell>
        <mxCell id="ncw7-V8ARUIdLt0aV4c7-26" value="- lastPoint: Point" style="text;strokeColor=none;fillColor=none;align=left;verticalAlign=top;spacingLeft=4;spacingRight=4;overflow=hidden;rotatable=0;points=[[0,0.5],[1,0.5]];portConstraint=eastwest;whiteSpace=wrap;html=1;" vertex="1" parent="ncw7-V8ARUIdLt0aV4c7-25">
          <mxGeometry y="26" width="190" height="26" as="geometry" />
        </mxCell>
        <mxCell id="ncw7-V8ARUIdLt0aV4c7-27" value="" style="line;strokeWidth=1;fillColor=none;align=left;verticalAlign=middle;spacingTop=-1;spacingLeft=3;spacingRight=3;rotatable=0;labelPosition=right;points=[];portConstraint=eastwest;strokeColor=inherit;" vertex="1" parent="ncw7-V8ARUIdLt0aV4c7-25">
          <mxGeometry y="52" width="190" height="8" as="geometry" />
        </mxCell>
        <mxCell id="ncw7-V8ARUIdLt0aV4c7-28" value="+&amp;nbsp;MainMenu2(): void&lt;br&gt;-&amp;nbsp;addCard_MouseClick(object sender, MouseEventArgs e): void" style="text;strokeColor=none;fillColor=none;align=left;verticalAlign=top;spacingLeft=4;spacingRight=4;overflow=hidden;rotatable=0;points=[[0,0.5],[1,0.5]];portConstraint=eastwest;whiteSpace=wrap;html=1;" vertex="1" parent="ncw7-V8ARUIdLt0aV4c7-25">
          <mxGeometry y="60" width="190" height="70" as="geometry" />
        </mxCell>
        <mxCell id="ncw7-V8ARUIdLt0aV4c7-29" value="NewCard" style="swimlane;fontStyle=1;align=center;verticalAlign=top;childLayout=stackLayout;horizontal=1;startSize=26;horizontalStack=0;resizeParent=1;resizeParentMax=0;resizeLast=0;collapsible=1;marginBottom=0;whiteSpace=wrap;html=1;" vertex="1" parent="WIyWlLk6GJQsqaUBKTNV-1">
          <mxGeometry x="587.5" y="470" width="195" height="150" as="geometry" />
        </mxCell>
        <mxCell id="ncw7-V8ARUIdLt0aV4c7-30" value="- lastPoint: Point" style="text;strokeColor=none;fillColor=none;align=left;verticalAlign=top;spacingLeft=4;spacingRight=4;overflow=hidden;rotatable=0;points=[[0,0.5],[1,0.5]];portConstraint=eastwest;whiteSpace=wrap;html=1;" vertex="1" parent="ncw7-V8ARUIdLt0aV4c7-29">
          <mxGeometry y="26" width="195" height="26" as="geometry" />
        </mxCell>
        <mxCell id="ncw7-V8ARUIdLt0aV4c7-31" value="" style="line;strokeWidth=1;fillColor=none;align=left;verticalAlign=middle;spacingTop=-1;spacingLeft=3;spacingRight=3;rotatable=0;labelPosition=right;points=[];portConstraint=eastwest;strokeColor=inherit;" vertex="1" parent="ncw7-V8ARUIdLt0aV4c7-29">
          <mxGeometry y="52" width="195" height="8" as="geometry" />
        </mxCell>
        <mxCell id="ncw7-V8ARUIdLt0aV4c7-32" value="+&amp;nbsp;NewCard(): void&lt;br&gt;-&amp;nbsp;addButton_MouseClick(object sender, MouseEventArgs e): void&lt;br&gt;-&amp;nbsp;returnButton_MouseClick(object sender, MouseEventArgs e): void" style="text;strokeColor=none;fillColor=none;align=left;verticalAlign=top;spacingLeft=4;spacingRight=4;overflow=hidden;rotatable=0;points=[[0,0.5],[1,0.5]];portConstraint=eastwest;whiteSpace=wrap;html=1;" vertex="1" parent="ncw7-V8ARUIdLt0aV4c7-29">
          <mxGeometry y="60" width="195" height="90" as="geometry" />
        </mxCell>
        <mxCell id="ncw7-V8ARUIdLt0aV4c7-33" value="NewService" style="swimlane;fontStyle=1;align=center;verticalAlign=top;childLayout=stackLayout;horizontal=1;startSize=26;horizontalStack=0;resizeParent=1;resizeParentMax=0;resizeLast=0;collapsible=1;marginBottom=0;whiteSpace=wrap;html=1;" vertex="1" parent="WIyWlLk6GJQsqaUBKTNV-1">
          <mxGeometry x="180" y="470" width="330" height="200" as="geometry" />
        </mxCell>
        <mxCell id="ncw7-V8ARUIdLt0aV4c7-34" value="- lastPoint: Point" style="text;strokeColor=none;fillColor=none;align=left;verticalAlign=top;spacingLeft=4;spacingRight=4;overflow=hidden;rotatable=0;points=[[0,0.5],[1,0.5]];portConstraint=eastwest;whiteSpace=wrap;html=1;" vertex="1" parent="ncw7-V8ARUIdLt0aV4c7-33">
          <mxGeometry y="26" width="330" height="26" as="geometry" />
        </mxCell>
        <mxCell id="ncw7-V8ARUIdLt0aV4c7-35" value="" style="line;strokeWidth=1;fillColor=none;align=left;verticalAlign=middle;spacingTop=-1;spacingLeft=3;spacingRight=3;rotatable=0;labelPosition=right;points=[];portConstraint=eastwest;strokeColor=inherit;" vertex="1" parent="ncw7-V8ARUIdLt0aV4c7-33">
          <mxGeometry y="52" width="330" height="8" as="geometry" />
        </mxCell>
        <mxCell id="ncw7-V8ARUIdLt0aV4c7-36" value="+&amp;nbsp;NewService(): void&lt;br&gt;-&amp;nbsp;addButton_Click(object sender, MouseEventArgs e): void&lt;br&gt;+&amp;nbsp;TestOfCorrectData(TextBox textServiceName, TextBox textLogin, TextBox textPassword): bool&lt;br&gt;+&amp;nbsp;SelectFromDB(string serviceName, string serviceLogin, string servicePassword):&amp;nbsp;Npgsql.NpgsqlCommand&lt;br&gt;+&amp;nbsp;InsertIntoDB(string serviceName, string serviceLogin, string servicePassword): Npgsql.NpgsqlCommand" style="text;strokeColor=none;fillColor=none;align=left;verticalAlign=top;spacingLeft=4;spacingRight=4;overflow=hidden;rotatable=0;points=[[0,0.5],[1,0.5]];portConstraint=eastwest;whiteSpace=wrap;html=1;" vertex="1" parent="ncw7-V8ARUIdLt0aV4c7-33">
          <mxGeometry y="60" width="330" height="140" as="geometry" />
        </mxCell>
        <mxCell id="ncw7-V8ARUIdLt0aV4c7-38" value="" style="endArrow=classic;endFill=1;endSize=12;html=1;rounded=0;" edge="1" parent="WIyWlLk6GJQsqaUBKTNV-1">
          <mxGeometry width="160" relative="1" as="geometry">
            <mxPoint x="414" y="89.5" as="sourcePoint" />
            <mxPoint x="280" y="90" as="targetPoint" />
          </mxGeometry>
        </mxCell>
        <mxCell id="ncw7-V8ARUIdLt0aV4c7-39" value="" style="endArrow=classic;dashed=1;endFill=1;endSize=12;html=1;rounded=0;entryX=1;entryY=0.5;entryDx=0;entryDy=0;exitX=0;exitY=0.5;exitDx=0;exitDy=0;" edge="1" parent="WIyWlLk6GJQsqaUBKTNV-1" source="ncw7-V8ARUIdLt0aV4c7-9" target="ncw7-V8ARUIdLt0aV4c7-1">
          <mxGeometry width="160" relative="1" as="geometry">
            <mxPoint x="790" y="90" as="sourcePoint" />
            <mxPoint x="680" y="90" as="targetPoint" />
          </mxGeometry>
        </mxCell>
        <mxCell id="ncw7-V8ARUIdLt0aV4c7-40" value="" style="endArrow=classic;endFill=1;endSize=12;html=1;rounded=0;exitX=0.23;exitY=1.024;exitDx=0;exitDy=0;exitPerimeter=0;entryX=0.5;entryY=0;entryDx=0;entryDy=0;" edge="1" parent="WIyWlLk6GJQsqaUBKTNV-1" source="ncw7-V8ARUIdLt0aV4c7-3" target="ncw7-V8ARUIdLt0aV4c7-21">
          <mxGeometry width="160" relative="1" as="geometry">
            <mxPoint x="454" y="220" as="sourcePoint" />
            <mxPoint x="320" y="220.5" as="targetPoint" />
          </mxGeometry>
        </mxCell>
        <mxCell id="ncw7-V8ARUIdLt0aV4c7-43" value="" style="endArrow=classic;endFill=1;endSize=12;html=1;rounded=0;exitX=1;exitY=0.5;exitDx=0;exitDy=0;entryX=0;entryY=0.5;entryDx=0;entryDy=0;" edge="1" parent="WIyWlLk6GJQsqaUBKTNV-1" source="ncw7-V8ARUIdLt0aV4c7-22" target="ncw7-V8ARUIdLt0aV4c7-26">
          <mxGeometry width="160" relative="1" as="geometry">
            <mxPoint x="566.5" y="190" as="sourcePoint" />
            <mxPoint x="461.5" y="268" as="targetPoint" />
          </mxGeometry>
        </mxCell>
        <mxCell id="ncw7-V8ARUIdLt0aV4c7-44" value="" style="endArrow=classic;endFill=1;endSize=12;html=1;rounded=0;exitX=0.23;exitY=1.024;exitDx=0;exitDy=0;exitPerimeter=0;entryX=0.5;entryY=0;entryDx=0;entryDy=0;" edge="1" parent="WIyWlLk6GJQsqaUBKTNV-1" target="ncw7-V8ARUIdLt0aV4c7-33">
          <mxGeometry width="160" relative="1" as="geometry">
            <mxPoint x="345" y="400" as="sourcePoint" />
            <mxPoint x="240" y="478" as="targetPoint" />
          </mxGeometry>
        </mxCell>
        <mxCell id="ncw7-V8ARUIdLt0aV4c7-45" value="" style="endArrow=classic;endFill=1;endSize=12;html=1;rounded=0;exitX=0.23;exitY=1.024;exitDx=0;exitDy=0;exitPerimeter=0;entryX=0.5;entryY=0;entryDx=0;entryDy=0;" edge="1" parent="WIyWlLk6GJQsqaUBKTNV-1" target="ncw7-V8ARUIdLt0aV4c7-29">
          <mxGeometry width="160" relative="1" as="geometry">
            <mxPoint x="685" y="400" as="sourcePoint" />
            <mxPoint x="580" y="478" as="targetPoint" />
          </mxGeometry>
        </mxCell>
      </root>
    </mxGraphModel>
  </diagram>
</mxfile>
